<svg xmlns="http://www.w3.org/2000/svg" width="200" height="200" viewBox="0 0 200 200">
  <!-- Background shield -->
  <path d="M100 10 L180 40 L180 100 C180 160 140 180 100 190 C60 180 20 160 20 100 L20 40 Z" fill="#f8f9fa" stroke="#007bff" stroke-width="4"/>
  
  <!-- Brain icon representing AI -->
  <path d="M100 55 C130 55 150 75 150 100 C150 125 130 145 100 145 C70 145 50 125 50 100 C50 75 70 55 100 55 Z" fill="none" stroke="#007bff" stroke-width="3"/>
  <path d="M75 90 C75 80 85 70 100 70 C115 70 125 80 125 90 C125 100 115 110 115 120 M85 120 C85 110 75 100 75 90" fill="none" stroke="#007bff" stroke-width="3"/>
  <path d="M75 90 L75 110 M125 90 L125 110" fill="none" stroke="#007bff" stroke-width="3"/>
  <path d="M85 120 L115 120" fill="none" stroke="#007bff" stroke-width="3"/>
  
  <!-- Circular nodes representing network -->
  <circle cx="65" cy="80" r="5" fill="#007bff"/>
  <circle cx="135" cy="80" r="5" fill="#007bff"/>
  <circle cx="85" cy="130" r="5" fill="#007bff"/>
  <circle cx="115" cy="130" r="5" fill="#007bff"/>
  <circle cx="100" cy="65" r="5" fill="#007bff"/>
  
  <!-- Lock icon representing security -->
  <rect x="90" y="155" width="20" height="15" rx="2" fill="#007bff"/>
  <path d="M95 155 L95 145 C95 140 105 140 105 145 L105 155" fill="none" stroke="#007bff" stroke-width="3"/>
  
  <!-- Text -->
  <text x="100" y="35" font-family="Arial, sans-serif" font-size="14" font-weight="bold" text-anchor="middle" fill="#212529">AI GOVERNANCE</text>
</svg>
